<svg id="Capa_1" enable-background="new 0 0 557.821 557.821" height="512" viewBox="0 0 557.821 557.821" width="512" xmlns="http://www.w3.org/2000/svg"><g><g><g><path d="m236.838 165.331h79.788c23.073-13.657 38.55-38.794 38.55-67.549 0-43.323-35.12-78.444-78.444-78.444-43.323 0-78.444 35.12-78.444 78.444 0 28.755 15.475 53.892 38.55 67.549z"/></g><g><path d="m547.896 235.835c-9.951-4.248-19.895-8.515-29.839-12.782l-11.333-4.861c-12.336-22.596-30.276-43.32-52.405-60.555v-69.116c0-9.025-7.317-16.342-16.342-16.342-18.818 0-36.403 6.356-50.423 17.352.202 2.725.306 5.476.306 8.251 0 28.101-10.811 54.95-29.401 75.226 2.034 2.725 3.253 6.094 3.253 9.754 0 9.025-7.317 16.342-16.342 16.342h-137.277c-9.025 0-16.342-7.317-16.342-16.342 0-3.669 1.225-7.045 3.266-9.773-11.509-12.561-20.049-27.63-24.874-43.967-17.456 8.045-33.738 17.918-48.444 29.514-35.989 28.381-59.291 64.315-67.673 103.492-13.034-7.167-21.341-20.859-21.341-36.232 0-7.017 1.801-13.971 5.21-20.107 4.383-7.89 1.541-17.839-6.35-22.221-7.888-4.383-17.838-1.541-22.221 6.35-6.1 10.98-9.324 23.421-9.324 35.98 0 32.102 20.246 60.101 50.556 70.234.37 56.697 31.221 109.371 85.059 145.563 6.494 28.081 12.994 56.163 19.511 84.24 1.718 7.405 8.317 12.648 15.919 12.648h53.387c7.605 0 14.206-5.246 15.921-12.656l9.752-42.127c25.603 3.334 52.046 3.302 77.606-.08 3.258 14.073 6.515 28.145 9.783 42.216 1.718 7.405 8.317 12.647 15.919 12.647h53.386c7.605 0 14.206-5.247 15.921-12.657l5.829-25.177c4.597-19.855 9.192-39.711 13.794-59.565 27.754-18.844 49.829-42.593 64.368-69.246l12.414-5.319c9.602-4.113 19.205-8.227 28.804-12.348 6.003-2.578 9.894-8.483 9.894-15.016v-88.29c-.002-6.546-3.908-12.46-9.927-15.03zm-131.709 38.99c-9.001 0-16.342-7.341-16.342-16.342s7.341-16.342 16.342-16.342 16.342 7.341 16.342 16.342c0 9-7.341 16.342-16.342 16.342z"/></g></g></g></svg>