<svg width="120" height="120" viewBox="0 0 120 120" fill="none" xmlns="http://www.w3.org/2000/svg">
<path opacity="0.5" d="M75.1001 17.1001L77.0001 23.8001" stroke="#BDC5D1" stroke-width="3" stroke-miterlimit="10" stroke-linecap="round" stroke-linejoin="round"/>
<path opacity="0.5" d="M25.1001 26L29.8001 24.7" stroke="#BDC5D1" stroke-width="3" stroke-miterlimit="10" stroke-linecap="round" stroke-linejoin="round"/>
<path d="M11.4002 41.1L9.40022 34C8.90022 32.1 10.0002 30.1 11.9002 29.6L19.4002 27.5" stroke="#BDC5D1" stroke-width="3" stroke-miterlimit="10" stroke-linecap="round" stroke-linejoin="round"/>
<path d="M90.8999 48.9001L80.1999 10.0001C79.3999 7.00012 76.1999 5.20012 73.1999 6.00012L5.79992 24.7001C2.79992 25.5001 0.999922 28.7001 1.79992 31.7001L13.3999 73.5001C14.1999 76.5001 17.3999 78.3001 20.3999 77.5001L28.8999 75.2001" stroke="#BDC5D1" stroke-width="3" stroke-miterlimit="10" stroke-linecap="round" stroke-linejoin="round"/>
<path opacity="0.5" d="M113.8 114.1H42.0999C38.6999 114.1 35.8999 111.3 35.8999 107.9V62.8001C35.8999 59.4001 38.6999 56.6001 42.0999 56.6001H113.8C117.2 56.6001 120 59.4001 120 62.8001V107.9C120 111.3 117.2 114.1 113.8 114.1Z" fill="#BDC5D1"/>
<path d="M105.4 103.3H33.7C30.3 103.3 27.5 100.5 27.5 97.1V52C27.5 48.6 30.3 45.8 33.7 45.8H105.4C108.8 45.8 111.6 48.6 111.6 52V97.1C111.6 100.6 108.9 103.3 105.4 103.3Z" fill="#002852"/>
<path opacity="0.5" d="M40.9998 84.7H32.2998" stroke="white" stroke-width="3" stroke-miterlimit="10" stroke-linecap="round" stroke-linejoin="round"/>
<path opacity="0.5" d="M50.0998 90.8H32.2998" stroke="white" stroke-width="3" stroke-miterlimit="10" stroke-linecap="round" stroke-linejoin="round"/>
<path opacity="0.5" d="M106.9 83.2H90V90.8H106.9V83.2Z" stroke="white" stroke-width="3" stroke-miterlimit="10" stroke-linecap="round" stroke-linejoin="round"/>
<path d="M106.8 61.1001H32.2998" stroke="white" stroke-width="3" stroke-miterlimit="10" stroke-linecap="round" stroke-linejoin="round"/>
<path d="M106.8 74.6001H32.2998" stroke="white" stroke-width="3" stroke-miterlimit="10" stroke-linecap="round" stroke-linejoin="round"/>
</svg>
