<svg width="120" height="120" viewBox="0 0 120 120" fill="none" xmlns="http://www.w3.org/2000/svg">
<g clip-path="url(#clip0)">
<path d="M11.2998 56.2001H22.5998V33.5001C22.5998 22.1001 31.8998 12.8001 43.2998 12.8001C54.6998 12.8001 63.9998 22.1001 63.9998 33.5001V56.2001H75.2998V33.5001C75.2998 15.9001 60.9998 1.6001 43.3998 1.6001C32.3998 1.6001 22.6998 7.2001 16.8998 15.7001" stroke="#BDC5D1" stroke-width="3" stroke-miterlimit="10"/>
<path d="M2.1001 77.2001C2.1001 100 20.6001 118.5 43.4001 118.5C66.2001 118.5 84.7001 100 84.7001 77.2001C84.7001 54.4001 66.2001 35.9001 43.4001 35.9001C20.6001 35.9001 2.1001 54.4001 2.1001 77.2001Z" fill="white"/>
<path opacity="0.5" d="M21.1001 82.3002C21.1001 97.8002 33.7001 110.4 49.2001 110.4C64.7001 110.4 77.3001 97.8002 77.3001 82.3002C77.3001 66.8002 64.7001 54.2002 49.2001 54.2002C33.6001 54.3002 21.1001 66.8002 21.1001 82.3002Z" fill="#BDC5D1"/>
<path d="M15.2998 77.2001C15.2998 92.7001 27.8998 105.3 43.3998 105.3C58.8998 105.3 71.4998 92.7001 71.4998 77.2001C71.4998 61.7001 58.8998 49.1001 43.3998 49.1001C27.8998 49.1001 15.2998 61.7001 15.2998 77.2001Z" fill="#002852"/>
<path d="M35.6001 73C35.6001 77.4 39.2001 81 43.6001 81C48.0001 81 51.6001 77.4 51.6001 73C51.6001 68.6 48.0001 65 43.6001 65C39.2001 65 35.6001 68.6 35.6001 73Z" fill="white"/>
<path d="M81.5 61.5C75.3 46.5 60.6 36 43.3 36C20.5 36 2 54.5 2 77.3C2 81.8 2.7 86.1 4 90.1" stroke="#BDC5D1" stroke-width="3" stroke-miterlimit="10"/>
<path d="M11.3999 103.2C18.9999 112.5 30.4999 118.4 43.3999 118.4C51.7999 118.4 59.4999 115.9 65.9999 111.6" stroke="#BDC5D1" stroke-width="3" stroke-miterlimit="10"/>
<path d="M6 94.5C6.5 95.5 8.2 98.7 8.8 99.6" stroke="#BDC5D1" stroke-width="3" stroke-miterlimit="10"/>
<path d="M38.8623 90.0486H48.3623V71.8486H38.8623V90.0486Z" fill="white"/>
<path d="M67.2002 80.3001L72.6002 91.6001C72.1002 94.7001 72.2002 98.0001 73.1002 101.3C76.4002 113.7 89.2002 121.1 101.6 117.7C114 114.4 121.4 101.6 118 89.2001C114.6 76.8001 101.9 69.4001 89.5002 72.8001C85.1002 74.0001 81.4002 76.3001 78.5002 79.4001L67.2002 80.3001Z" fill="white" stroke="#BDC5D1" stroke-width="3" stroke-miterlimit="10"/>
<path opacity="0.5" d="M82.7998 95.3001C80.5998 87.2001 85.5998 78.8001 93.8998 76.6001C102.2 74.4001 110.7 79.1001 112.9 87.3001C115.1 95.4001 110.1 103.8 101.8 106C93.4998 108.2 84.9998 103.4 82.7998 95.3001Z" fill="#BDC5D1"/>
<path d="M80.2998 99.3001C78.0998 91.2001 83.0998 82.8001 91.3998 80.6001C99.6998 78.4001 108.2 83.1001 110.4 91.3001C112.6 99.4001 107.6 107.8 99.2998 110C90.9998 112.1 82.4998 107.4 80.2998 99.3001Z" fill="#002852"/>
<path d="M89.6001 95.7L93.1001 99.2C93.3001 99.4 93.7001 99.4 93.9001 99.2L101.8 91.3" stroke="white" stroke-width="3" stroke-miterlimit="10" stroke-linecap="round"/>
</g>
<defs>
<clipPath id="clip0">
<rect width="120" height="120" fill="white"/>
</clipPath>
</defs>
</svg>
